<?xml version="1.0" encoding="UTF-8"?>
<svg version="1.1" xmlns="http://www.w3.org/2000/svg" width="1534" height="1518">
<path d="M0 0 C6.46006949 6.48259702 5.2352234 19.48103993 5.22364807 28.03260803 C5.21043015 29.22712082 5.19721222 30.42163361 5.18359375 31.65234375 C5.17621689 32.97096909 5.16884003 34.28959442 5.16123962 35.6481781 C5.05251096 51.62737016 4.64581195 67.60436766 4.27116394 83.57901001 C1.87907319 185.72715022 1.44969094 287.8935315 2.4375 390.0625 C2.4473568 391.10032246 2.45721359 392.13814491 2.46736908 393.20741653 C2.8444389 432.79314212 3.26313108 472.39479093 4.93157959 511.95043945 C5.67998295 530.09773819 6.24010368 548.24942739 6.35348511 566.41253662 C6.36766205 568.44697808 6.38843698 570.48138586 6.41629028 572.51568604 C6.4518293 575.31288461 6.46047261 578.10885334 6.4609375 580.90625 C6.47522293 581.71508636 6.48950836 582.52392273 6.50422668 583.35726929 C6.46106004 588.77749587 5.59033917 593.76129562 2 598 C-3.39506006 601.83125758 -7.34844534 602.58074918 -13.86938477 602.50170898 C-14.72883698 602.50711197 -15.58828918 602.51251495 -16.4737854 602.51808167 C-19.29668285 602.53052421 -22.11855154 602.51410931 -24.94140625 602.49609375 C-26.91243035 602.49624883 -28.88345476 602.49773926 -30.85447693 602.50050354 C-34.97758528 602.50188548 -39.10034491 602.48936255 -43.22338867 602.46655273 C-48.5015775 602.4381502 -53.77918803 602.44091331 -59.05741978 602.45364285 C-63.12469908 602.46060544 -67.19184528 602.45280438 -71.25910759 602.44038582 C-73.20511298 602.4358783 -75.1511327 602.4355284 -77.09713936 602.43945122 C-79.81839307 602.4423696 -82.53885612 602.4258272 -85.26000977 602.40405273 C-86.05965652 602.40855438 -86.85930328 602.41305603 -87.68318176 602.41769409 C-92.51147777 602.35367396 -95.80682181 601.64242362 -100 599 C-106.68306143 591.38873559 -106.30483813 580.75786998 -106.39477539 571.14306641 C-106.41298812 569.98844375 -106.43120085 568.83382109 -106.44996548 567.64420986 C-106.50823179 563.79673144 -106.55306504 559.94922192 -106.59765625 556.1015625 C-106.63524833 553.33505358 -106.67546899 550.56858399 -106.7154541 547.80210876 C-106.81076143 541.08266098 -106.89548354 534.36311825 -106.97650778 527.64348465 C-107.04261423 522.18290958 -107.11335952 516.72241107 -107.1869812 511.26193237 C-107.67833588 474.74712064 -108.05787289 438.23207898 -108.3125 401.71484375 C-108.31818457 400.9034129 -108.32386915 400.09198204 -108.32972598 399.25596237 C-108.44524644 382.72597905 -108.55108296 366.19597177 -108.63515663 349.66579723 C-108.66117079 344.57535636 -108.6901472 339.48493356 -108.71992457 334.39451343 C-108.74680092 329.73754565 -108.76667097 325.08057832 -108.78527832 320.42356873 C-108.79871471 318.04743291 -108.8124111 315.67129855 -108.82641602 313.29516602 C-108.82903474 312.22883753 -108.83165346 311.16250904 -108.83435154 310.06386757 C-108.86802012 305.26670937 -108.9945441 300.71545238 -110 296 C-113.97863838 297.32621279 -115.15121852 299.80702288 -117.3125 303.1875 C-117.95457397 304.17097412 -117.95457397 304.17097412 -118.60961914 305.17431641 C-120.08432422 307.44249251 -121.5436865 309.71997354 -123 312 C-123.54688477 312.85513184 -124.09376953 313.71026367 -124.65722656 314.59130859 C-127.63065515 319.24665109 -130.59347104 323.9086237 -133.55078125 328.57421875 C-136.54741505 333.2971652 -139.5770031 337.99758944 -142.625 342.6875 C-147.98485924 350.94309579 -153.24027651 359.26300113 -158.48388672 367.59277344 C-160.98526724 371.56436956 -163.4929715 375.53196776 -166 379.5 C-167.00391854 381.08983599 -168.0078248 382.67967973 -169.01171875 384.26953125 C-170.97111652 387.37207035 -172.93213915 390.47357282 -174.89453125 393.57421875 C-179.74299742 401.2381863 -184.57339662 408.912644 -189.37011719 416.60913086 C-197.1722433 429.12597032 -205.09539914 441.56134584 -213.06103516 453.97460938 C-218.39761984 462.3013479 -223.6999407 470.64998159 -229 479 C-229.5151416 479.81130371 -230.0302832 480.62260742 -230.56103516 481.45849609 C-232.06304047 483.82554075 -233.56336356 486.19363743 -235.0625 488.5625 C-235.55331055 489.33795166 -236.04412109 490.11340332 -236.54980469 490.91235352 C-239.03956264 494.85692565 -241.50519509 498.8142046 -243.93359375 502.796875 C-250.08199373 512.86843589 -256.41668696 522.8034852 -262.93457031 532.63925171 C-263.79715603 533.94139513 -264.65789971 535.24476108 -265.51660156 536.54946899 C-280.97333557 560.00325388 -280.97333557 560.00325388 -288 562 C-294.07063172 562 -296.7571487 560.80154845 -301.19775391 556.81933594 C-304.2837359 553.70409105 -306.75213889 550.21764155 -309.25 546.625 C-309.74628906 545.92761719 -310.24257813 545.23023438 -310.75390625 544.51171875 C-312.51931365 542.0191212 -314.26152676 539.51146521 -316 537 C-316.37692993 536.45583435 -316.75385986 535.9116687 -317.14221191 535.35101318 C-324.63835781 524.51824532 -332.00997961 513.60246593 -339.36578369 502.67410278 C-349.26877103 487.96269237 -359.19781228 473.27057059 -369.20507812 458.62988281 C-372.7708915 453.40532601 -376.32315006 448.17155469 -379.875 442.9375 C-380.26453857 442.36350464 -380.65407715 441.78950928 -381.05541992 441.19812012 C-387.7177714 431.37916425 -394.36177297 421.54784927 -401.0027771 411.71444702 C-416.53549949 388.71589591 -432.09681992 365.74500915 -448 343 C-448.61504395 342.11940918 -449.23008789 341.23881836 -449.86376953 340.33154297 C-452.79193362 336.13917553 -455.72394655 331.94961985 -458.6640625 327.765625 C-460.92915931 324.5396182 -463.1708672 321.29889627 -465.3984375 318.046875 C-465.94209961 317.25974121 -466.48576172 316.47260742 -467.04589844 315.66162109 C-468.06921531 314.1798051 -469.0859329 312.69340122 -470.09472656 311.20166016 C-470.55073242 310.54472168 -471.00673828 309.8877832 -471.4765625 309.2109375 C-471.86924316 308.63649902 -472.26192383 308.06206055 -472.66650391 307.47021484 C-474.25570082 305.71808305 -475.87832922 305.00524731 -478 304 C-478.15135061 312.70824262 -478.29633712 321.41658651 -478.4375 330.125 C-478.4488158 330.82294174 -478.46013161 331.52088348 -478.47179031 332.23997498 C-478.8507134 355.71423272 -479.12612866 379.18851841 -479.3532095 402.66469383 C-479.54537768 422.44338545 -479.76785176 442.22174149 -480 462 C-480.01497276 463.28152954 -480.02994553 464.56305908 -480.04537201 465.88342285 C-480.24324337 482.7838545 -480.45602208 499.68400696 -480.69765377 516.58387375 C-480.79771426 523.59608664 -480.89321013 530.60828792 -480.9760437 537.62072754 C-481.05431382 544.24218136 -481.14744399 550.86331199 -481.25038338 557.48443604 C-481.28618524 559.93610997 -481.3171246 562.38786041 -481.34286308 564.83966064 C-481.37917618 568.21799851 -481.43329648 571.59561461 -481.49169922 574.97363281 C-481.49804603 575.94971119 -481.50439283 576.92578957 -481.51093197 577.93144608 C-481.67311889 585.59004351 -482.54294942 592.99011304 -487.5 599.0625 C-491.83577417 602.42272498 -495.88924088 602.15364576 -501.13989258 602.16113281 C-501.96949997 602.16609772 -502.79910736 602.17106262 -503.65385437 602.17617798 C-506.40075508 602.19079303 -509.14759803 602.19760071 -511.89453125 602.203125 C-513.80401104 602.20887724 -515.71349082 602.21463496 -517.62297058 602.22039795 C-521.62861398 602.23090623 -525.63423733 602.23674995 -529.63989258 602.24023438 C-534.76791988 602.24571705 -539.89568139 602.26974099 -545.02362537 602.29820633 C-548.96905792 602.31684796 -552.91442666 602.32203914 -556.85989952 602.32357025 C-558.75010315 602.32659414 -560.64030572 602.33461376 -562.53046608 602.34775543 C-565.17782315 602.3648469 -567.82453367 602.3629281 -570.47192383 602.35644531 C-571.63874191 602.37026749 -571.63874191 602.37026749 -572.82913208 602.3843689 C-577.63904464 602.34754959 -580.91837105 601.55378153 -585 599 C-588.60852266 595.09889442 -590.11796552 592.11676405 -590.14526367 586.82568359 C-590.15155792 585.97199188 -590.15785217 585.11830017 -590.16433716 584.23873901 C-590.16553558 583.30143951 -590.16673401 582.36414001 -590.16796875 581.3984375 C-590.17411697 579.90680588 -590.17411697 579.90680588 -590.1803894 578.38504028 C-590.19013215 575.04832684 -590.18987834 571.71172595 -590.1875 568.375 C-590.18789276 567.21476318 -590.18828552 566.05452637 -590.18869019 564.85913086 C-590.17980412 542.58421718 -589.59501527 520.34570208 -588.79956055 498.08740234 C-587.25264068 454.36700649 -586.83734986 410.63763164 -586.83274293 366.89274096 C-586.83201469 362.96937187 -586.8299052 359.04600493 -586.82724571 355.1226368 C-586.81849681 341.92712634 -586.81381508 328.73162376 -586.81457619 315.53611039 C-586.81461614 314.83575402 -586.8146561 314.13539765 -586.81469727 313.41381836 C-586.81473815 312.71250331 -586.81477903 312.01118827 -586.81482115 311.28862125 C-586.81519729 300.77793153 -586.8074345 290.26727269 -586.79418945 279.7565918 C-586.71719477 217.55512802 -586.91807979 155.3812352 -588.29804993 93.19078064 C-589.10247844 56.89223952 -589.10247844 56.89223952 -589.17543757 38.87371719 C-589.18281999 37.23398711 -589.19338777 35.5942673 -589.20761621 33.95458233 C-589.41036874 8.68578871 -589.41036874 8.68578871 -585.13354206 2.14592648 C-583 0 -583 0 -579.625 -0.5625 C-566.58626559 1.46075189 -557.86227544 17.88707504 -550.59130859 27.81738281 C-546.25372333 33.76675567 -541.94152196 39.73392963 -537.64550781 45.71337891 C-536.00498331 47.99307513 -534.35898311 50.26870498 -532.7109375 52.54296875 C-525.89639892 61.94873715 -519.15616508 71.40331268 -512.47509766 80.90429688 C-510.52206175 83.67901721 -508.56294249 86.44941608 -506.60400391 89.2199707 C-501.74403225 96.0959722 -496.89770244 102.98156037 -492.0625 109.875 C-491.55025879 110.60372314 -491.03801758 111.33244629 -490.51025391 112.08325195 C-479.65749475 127.57418298 -469.08007287 143.25969484 -458.5 158.9375 C-457.88327423 159.85119354 -457.26654846 160.76488708 -456.63113403 161.70626831 C-445.91707899 177.58887156 -435.342628 193.56022546 -424.81738281 209.56835938 C-407.52523673 235.86590226 -390.05573515 262.04481949 -372.4375 288.125 C-371.93351685 288.87119598 -371.42953369 289.61739197 -370.91027832 290.38619995 C-364.41553243 299.99797913 -357.87315281 309.57592577 -351.29005432 319.12739563 C-349.02415314 322.4165102 -346.76240777 325.70848204 -344.5 329 C-343.73320923 330.11483765 -343.73320923 330.11483765 -342.95092773 331.25219727 C-340.72568279 334.48748246 -338.50311726 337.72456006 -336.28515625 340.96484375 C-331.14887564 348.46298278 -325.95945339 355.92005232 -320.70922852 363.33886719 C-316.62435809 369.11118206 -312.55743152 374.89586509 -308.5 380.6875 C-307.6186438 381.94385254 -307.6186438 381.94385254 -306.71948242 383.22558594 C-306.16236572 384.02125977 -305.60524902 384.81693359 -305.03125 385.63671875 C-304.50402344 386.38614746 -303.97679687 387.13557617 -303.43359375 387.90771484 C-302.17307422 389.7474036 -301.00645058 391.61770146 -299.84375 393.51953125 C-298.24005427 396.13622194 -298.24005427 396.13622194 -295.75 396.875 C-295.1725 396.91625 -294.595 396.9575 -294 397 C-288.5686842 390.4983955 -283.6255471 383.7348746 -278.77197266 376.79833984 C-275.10515322 371.55823744 -271.38331474 366.36230511 -267.625 361.1875 C-261.23917034 352.37780989 -254.99654593 343.47151854 -248.77490234 334.54541016 C-245.81304123 330.29776724 -242.84416396 326.05503991 -239.875 321.8125 C-239.00222412 320.56472778 -239.00222412 320.56472778 -238.11181641 319.29174805 C-234.89261068 314.69230222 -231.66032394 310.10252849 -228.41430664 305.52197266 C-222.01894179 296.49508803 -215.75967278 287.37976707 -209.52880859 278.23876953 C-207.70796683 275.57235001 -205.87761079 272.91260328 -204.04516602 270.25415039 C-190.85555462 251.11740414 -177.86364959 231.84589792 -164.86523438 212.57910156 C-139.28898404 174.66992072 -113.69314009 136.75817045 -86.85253906 99.72705078 C-83.21396292 94.70095559 -79.62606423 89.64197058 -76.0625 84.5625 C-70.10137057 76.0789753 -63.95493558 67.7375182 -57.78222656 59.40722656 C-55.4312617 56.23181375 -53.08769754 53.050986 -50.74511719 49.86938477 C-49.58263814 48.29106088 -48.41922777 46.7134225 -47.25488281 45.13647461 C-44.29607026 41.1278542 -41.351141 37.11016447 -38.4296875 33.07421875 C-32.99079451 25.58159261 -27.50411329 18.17779638 -21.5 11.125 C-21.03190918 10.57223389 -20.56381836 10.01946777 -20.08154297 9.44995117 C-14.15073715 2.62984323 -9.50604403 -2.20676022 0 0 Z " fill="#040404" transform="translate(615,441)"/>
<path d="M0 0 C0.8588681 -0.0049649 1.71773621 -0.00992981 2.60263062 -0.01504517 C5.44692788 -0.02966244 8.29116937 -0.03646824 11.13549805 -0.04199219 C13.11223858 -0.0477442 15.0889791 -0.05350193 17.0657196 -0.05926514 C21.21259827 -0.06977403 25.35945755 -0.07561736 29.50634766 -0.07910156 C34.81597344 -0.08458462 40.12534257 -0.10860914 45.43488789 -0.13707352 C49.5192896 -0.15571222 53.60362965 -0.16090617 57.6880703 -0.16243744 C59.6452595 -0.16546194 61.60244767 -0.17348364 63.55959511 -0.18662262 C66.30034439 -0.20370802 69.04046884 -0.20179672 71.78125 -0.1953125 C72.58718094 -0.20452728 73.39311188 -0.21374207 74.22346497 -0.22323608 C79.07612798 -0.18733515 82.3742434 0.49256099 86.5847168 3.16113281 C95.69159009 13.78581832 93.71177926 31.70967833 93.6472168 44.75488281 C93.40702064 113.57108064 94.09655171 182.32985603 94.5847168 251.16113281 C193.9147168 251.16113281 293.2447168 251.16113281 395.5847168 251.16113281 C395.7497168 226.22550781 395.9147168 201.28988281 396.0847168 175.59863281 C396.13692383 167.87126709 396.18913086 160.14390137 396.24291992 152.18237305 C396.279111 146.61903639 396.31512742 141.05569998 396.35052681 135.49235845 C396.36667245 132.98514699 396.38333554 130.47793932 396.40007019 127.97073174 C396.51544957 110.55846857 396.61115044 93.14736984 396.55309391 75.73470628 C396.54573977 73.51167829 396.53948345 71.28864963 396.53350067 69.06561756 C396.51440219 62.31345085 396.48462277 55.56170397 396.43444824 48.80967712 C396.2498899 13.47705471 396.2498899 13.47705471 402.5847168 4.16113281 C407.15512018 -0.13227643 411.89788389 0.00423794 417.87646484 -0.01586914 C418.72236679 -0.02244034 419.56826874 -0.02901154 420.43980408 -0.03578186 C423.24201548 -0.05550726 426.04417326 -0.06717693 428.84643555 -0.07714844 C429.80456461 -0.08122396 430.76269367 -0.08529949 431.74985695 -0.08949852 C436.82298187 -0.11035789 441.89607976 -0.12465914 446.96923828 -0.1340332 C452.20027682 -0.14508605 457.43088863 -0.17947344 462.66177654 -0.2192049 C466.69135815 -0.2453973 470.72083858 -0.25372747 474.75049782 -0.25731468 C476.6781381 -0.26217531 478.60577403 -0.27377434 480.53333092 -0.29235268 C483.23789257 -0.31679577 485.94135696 -0.31576955 488.64599609 -0.30883789 C489.43538574 -0.32164795 490.22477539 -0.33445801 491.03808594 -0.34765625 C496.60926009 -0.29587626 500.94309997 1.01155347 505.5847168 4.16113281 C511.00658238 11.15708841 509.78087991 19.83238756 509.7722168 28.22363281 C509.77260956 29.04309387 509.77300232 29.86255493 509.77340698 30.70684814 C509.76487691 46.19999401 509.36968031 61.68007645 508.92765808 77.16560364 C508.88133865 78.79644352 508.83503439 80.42728384 508.78874397 82.05812454 C508.71939035 84.49959374 508.64993608 86.94105982 508.58010554 89.38251543 C507.88676545 113.63059803 507.34263312 137.8749641 507.0554595 162.13136673 C507.02527856 164.67769345 506.99423037 167.22400877 506.96315384 169.77032471 C506.48529633 209.40862686 506.43088083 249.0457932 506.45614737 288.68650544 C506.45990889 295.26415338 506.45855973 301.84178621 506.4543457 308.41943359 C506.4286586 349.69522802 506.54331788 390.96654499 506.99498606 432.24015427 C507.02545164 435.04081752 507.05488272 437.84149012 507.08414841 440.64216614 C507.33337884 464.13936146 507.84600438 487.61376747 508.6472168 511.09863281 C508.74021763 513.88183983 508.83210783 516.66508276 508.92378235 519.44833374 C508.96421819 520.67068411 509.00465403 521.89303448 509.04631519 523.15242577 C509.5608185 539.11020143 509.82841122 555.06240903 509.88327026 571.02786255 C509.89246369 573.58767898 509.90645034 576.14748332 509.92556763 578.70724487 C509.94906719 582.20768966 509.95204709 585.7074999 509.94799805 589.20800781 C509.95712219 590.23585892 509.96624634 591.26371002 509.97564697 592.32270813 C509.94097318 597.68779553 509.64726629 601.54922895 506.5847168 606.16113281 C501.3216857 611.02943657 497.08439089 611.31274603 490.16943359 611.32226562 C489.31056549 611.32723053 488.45169739 611.33219543 487.56680298 611.33731079 C484.72250571 611.35192807 481.87826422 611.35873386 479.03393555 611.36425781 C477.05719501 611.37000983 475.08045449 611.37576756 473.10371399 611.38153076 C468.95683533 611.39203965 464.80997604 611.39788299 460.66308594 611.40136719 C455.35346016 611.40685024 450.04409103 611.43087477 444.73454571 611.45933914 C440.650144 611.47797785 436.56580394 611.48317179 432.4813633 611.48470306 C430.52417409 611.48772757 428.56698592 611.49574927 426.60983849 611.50888824 C423.86908921 611.52597364 421.12896476 611.52406235 418.38818359 611.51757812 C417.17928719 611.5314003 417.17928719 611.5314003 415.94596863 611.54550171 C411.0893959 611.50957186 407.81824219 610.79641292 403.5847168 608.16113281 C394.64873684 597.74418988 397.24262637 578.40513707 397.17407227 565.68554688 C397.15461629 563.38124783 397.13432401 561.07695572 397.1132679 558.77267075 C397.05941212 552.62826606 397.0169315 546.4838331 396.97688293 540.33932495 C396.93749232 534.56355931 396.88774182 528.78790053 396.83886719 523.01220703 C396.70212655 506.14526308 396.58192197 489.27818834 396.4597168 472.41113281 C396.1709668 434.70863281 395.8822168 397.00613281 395.5847168 358.16113281 C296.5847168 358.16113281 197.5847168 358.16113281 95.5847168 358.16113281 C93.90127218 361.52802204 94.42060101 365.34149846 94.40872192 369.04585266 C94.40181709 369.9776062 94.39491226 370.90935974 94.38779819 371.86934823 C94.3656443 375.01127525 94.35049173 378.15319863 94.33520508 381.29516602 C94.32068213 383.54035236 94.30568688 385.78553568 94.29025269 388.03071594 C94.25769154 392.877234 94.22798225 397.72375849 94.20029068 402.57030678 C94.15593008 410.24021789 94.10211038 417.91004406 94.0463562 425.57987976 C93.96871904 436.34140726 93.89243812 447.10294107 93.81958008 457.86450195 C93.81495128 458.54780231 93.81032248 459.23110267 93.80555342 459.9351091 C93.73096095 470.98392849 93.66375018 482.03278381 93.59842886 493.08166132 C93.53103498 504.4351084 93.45224477 515.78843311 93.36437786 527.14174336 C93.31554682 533.5120485 93.27216281 539.88228858 93.24173355 546.25271034 C93.21306882 552.25360481 93.17087347 558.25425436 93.11854935 564.25498772 C93.10180924 566.45063665 93.08999387 568.64632987 93.08362579 570.84203339 C92.98847575 601.10410101 92.98847575 601.10410101 85.5847168 609.16113281 C81.19381356 611.52228885 76.83938828 611.45716084 71.97412109 611.45166016 C70.69019974 611.46173599 70.69019974 611.46173599 69.38034058 611.47201538 C66.5564795 611.49098073 63.73285632 611.49491895 60.90893555 611.49707031 C58.93984378 611.50349966 56.97075298 611.51022813 55.00166321 611.51724243 C50.87510972 611.52921183 46.74863993 611.53292364 42.62207031 611.53173828 C37.34621923 611.53153521 32.0709075 611.55882703 26.79518414 611.5932827 C22.72784483 611.61557166 18.66063486 611.61957519 14.59324074 611.61851883 C12.64886429 611.62087217 10.70448414 611.62968061 8.76016808 611.64518356 C6.0342319 611.66488227 3.30945276 611.65899026 0.58349609 611.64697266 C-0.2121022 611.65821167 -1.0077005 611.66945068 -1.82740784 611.68103027 C-7.41231887 611.61877975 -11.76196234 610.3211624 -16.4152832 607.16113281 C-21.83709684 600.16524425 -20.6116828 591.49062512 -20.6027832 583.09863281 C-20.60317596 582.30606079 -20.60356873 581.51348877 -20.60397339 580.69689941 C-20.59637529 567.49689969 -20.2381957 554.3184113 -19.75822639 541.12788868 C-19.71238482 539.86365216 -19.66654324 538.59941564 -19.61931252 537.29686892 C-19.52835821 534.7996871 -19.43691805 532.3025229 -19.34486938 529.80538118 C-18.63502984 510.44928772 -18.13941945 491.10038262 -17.85717773 471.73266602 C-17.83620104 470.33715081 -17.81518395 468.94163621 -17.79412866 467.54612219 C-17.35388078 438.06882564 -17.26589119 408.59271165 -17.27998274 379.11242883 C-17.28232841 374.06840872 -17.28252865 369.02439197 -17.28146744 363.98037148 C-17.2813142 363.24327735 -17.28116097 362.50618323 -17.2810031 361.74675292 C-17.28068315 360.24622152 -17.28035894 358.74569011 -17.2800305 357.24515871 C-17.27722662 343.40600034 -17.28038109 329.56684876 -17.28583087 315.72769151 C-17.29029892 304.02166402 -17.28951282 292.31564646 -17.28491211 280.60961914 C-17.27948223 266.78872225 -17.27749598 252.96783119 -17.28052437 239.14693338 C-17.2808427 237.65556069 -17.28115708 236.16418801 -17.28146744 234.67281532 C-17.28162171 233.94030193 -17.28177599 233.20778853 -17.28193494 232.45307776 C-17.28277495 227.45107465 -17.28137429 222.44907549 -17.27898788 217.44707298 C-17.26618051 188.00970546 -17.39045953 158.57998496 -17.88842773 129.14672852 C-17.90970789 127.88412653 -17.93098804 126.62152455 -17.95291305 125.3206619 C-18.17525861 112.42828936 -18.45139438 99.54484658 -18.9777832 86.66113281 C-19.4731728 72.3659906 -19.59095396 58.06937091 -19.64645386 43.76708984 C-19.65749542 41.00382115 -19.67528071 38.2407273 -19.69900513 35.47753906 C-19.73170137 31.57908967 -19.73879573 27.68081516 -19.7434082 23.78222656 C-19.75570969 22.59926498 -19.76801117 21.41630341 -19.78068542 20.19749451 C-19.75324828 9.96830073 -19.75324828 9.96830073 -16.4152832 5.16113281 C-11.15225211 0.29282905 -6.91495729 0.0095196 0 0 Z " fill="#040404" transform="translate(749.415283203125,431.8388671875)"/>
<path d="M0 0 C0.88603535 -0.00407553 1.77207069 -0.00815105 2.6849556 -0.01235008 C7.39950562 -0.03309601 12.11402777 -0.04743176 16.82861328 -0.05688477 C20.63086567 -0.06562539 24.43273824 -0.08622747 28.23486328 -0.1184082 C78.05240018 -0.53019076 126.86781805 5.14859514 175.2265625 17.23828125 C175.87931152 17.40114624 176.53206055 17.56401123 177.20458984 17.73181152 C249.65239666 35.879095 319.24046608 67.02740074 380.2265625 110.23828125 C381.45017855 111.09423951 382.67412125 111.94973107 383.8984375 112.8046875 C405.47551556 127.95718077 425.99489877 144.62742832 445.32421875 162.5546875 C447.19473735 164.28422489 449.07678056 166.0014215 450.97265625 167.703125 C457.51550647 173.59259766 463.80435757 179.71084241 470.0390625 185.92578125 C471.23994507 187.11977539 471.23994507 187.11977539 472.46508789 188.33789062 C476.68987196 192.57367788 480.7541877 196.88766618 484.65600586 201.42260742 C486.90818322 204.02628269 489.25511215 206.53169417 491.6015625 209.05078125 C495.83966951 213.643875 499.88256443 218.35098347 503.80078125 223.22265625 C505.58016115 225.43470341 507.37286803 227.63034964 509.18359375 229.81640625 C534.88349792 260.93118188 556.78417005 294.98534254 575.78271484 330.54736328 C577.15105716 333.09756095 578.53995352 335.6354396 579.93359375 338.171875 C603.96959609 382.38527195 620.77858464 431.33317653 632.2265625 480.23828125 C632.38082703 480.89658936 632.53509155 481.55489746 632.69403076 482.2331543 C643.48396989 528.53465833 648.45755697 575.45889278 648.4140625 622.98828125 C648.41345825 624.20848969 648.412854 625.42869812 648.41223145 626.68588257 C648.38767921 644.9594793 648.07322662 663.04597254 646.2265625 681.23828125 C646.10297363 682.5212207 645.97938477 683.80416016 645.85205078 685.12597656 C638.06051828 765.03764849 614.74196346 843.34468924 521.2265625 1002.23828125 C520.73897461 1002.87604492 520.25138672 1003.51380859 519.74902344 1004.17089844 C513.61732446 1012.16169853 507.22547171 1019.91312072 500.66650391 1027.55566406 C499.14182224 1029.33730293 497.62700745 1031.12701535 496.11328125 1032.91796875 C486.97026764 1043.70632766 486.97026764 1043.70632766 481.90161133 1048.56225586 C480.23075405 1050.23408726 478.70888046 1051.97171745 477.1796875 1053.7734375 C472.61903075 1059.01786259 467.71201089 1063.89882625 462.7890625 1068.80078125 C461.88607422 1069.70763672 460.98308594 1070.61449219 460.05273438 1071.54882812 C455.49535311 1076.09960927 450.88658791 1080.51790541 445.99829102 1084.71166992 C443.40589951 1086.94540619 440.91806683 1089.28088002 438.4140625 1091.61328125 C433.82096875 1095.85138826 429.11386028 1099.89428318 424.2421875 1103.8125 C422.03014034 1105.5918799 419.83449411 1107.38458678 417.6484375 1109.1953125 C343.91316472 1170.09404242 255.49477297 1211.43701452 108.2265625 1242.98828125 C107.49148468 1243.08951294 106.75640686 1243.19074463 105.99905396 1243.29504395 C101.534748 1243.90280107 97.06676152 1244.45907356 92.59014893 1244.96841431 C91.02040439 1245.14764285 89.451325 1245.33280099 87.88299561 1245.52401733 C68.8422405 1247.79465645 49.70527471 1247.57915913 30.56103516 1247.55395508 C26.77250236 1247.54934104 22.98429193 1247.55619306 19.19580078 1247.57446289 C-4.63846606 1247.6882017 -28.09227715 1247.07182328 -51.7734375 1244.23828125 C-53.22988678 1244.06448441 -53.22988678 1244.06448441 -54.71575928 1243.88717651 C-60.17010383 1243.215559 -65.59795152 1242.42342235 -71.0234375 1241.55078125 C-72.20990875 1241.36428009 -72.20990875 1241.36428009 -73.42034912 1241.17401123 C-134.34646337 1231.55172861 -193.24317913 1213.05282114 -248.7734375 1186.23828125 C-250.44067871 1185.43753174 -250.44067871 1185.43753174 -252.14160156 1184.62060547 C-268.14410561 1176.90117037 -283.57549774 1168.43703426 -298.7734375 1159.23828125 C-299.88138672 1158.5721582 -299.88138672 1158.5721582 -301.01171875 1157.89257812 C-318.54822266 1147.31367376 -335.42207665 1135.56076691 -351.7734375 1123.23828125 C-352.30662598 1122.83867188 -352.83981445 1122.4390625 -353.38916016 1122.02734375 C-366.10696445 1112.47435666 -378.53382851 1102.45282606 -390.18359375 1091.6171875 C-392.28398387 1089.68786988 -394.40942902 1087.8069187 -396.5625 1085.9375 C-400.82890083 1082.21657508 -404.96989803 1078.37423156 -409.0859375 1074.48828125 C-409.82505371 1073.79089844 -410.56416992 1073.09351563 -411.32568359 1072.375 C-419.11429467 1065.00221148 -426.87382967 1057.6219041 -433.83984375 1049.453125 C-435.87237069 1047.12495778 -437.96730542 1044.86673346 -440.0769043 1042.60864258 C-445.1081937 1037.22093435 -449.93478602 1031.74195619 -454.5546875 1025.9921875 C-456.543925 1023.52315151 -458.56489593 1021.08433913 -460.60351562 1018.65600586 C-473.7734375 1002.96582179 -473.7734375 1002.96582179 -473.7734375 1000.23828125 C-468.81164607 999.98925303 -463.85355682 999.80882665 -458.88696289 999.68896484 C-457.20174763 999.63896803 -455.51695982 999.57093824 -453.83325195 999.48388672 C-439.8585907 998.77997786 -439.8585907 998.77997786 -434.72802734 1002.36816406 C-432.46167326 1004.88346147 -430.61304311 1007.40207587 -428.7734375 1010.23828125 C-427.62853734 1011.59035097 -426.46558699 1012.92768273 -425.2734375 1014.23828125 C-424.71140625 1014.8828125 -424.149375 1015.52734375 -423.5703125 1016.19140625 C-420.01252928 1020.2441854 -416.39195454 1024.23979069 -412.7734375 1028.23828125 C-411.98582031 1029.12 -411.19820313 1030.00171875 -410.38671875 1030.91015625 C-404.62501834 1037.29832026 -398.65877124 1043.45744587 -392.5859375 1049.55078125 C-391.83771729 1050.30359375 -391.08949707 1051.05640625 -390.31860352 1051.83203125 C-386.18685271 1055.95238727 -381.96534558 1059.90446427 -377.54418945 1063.71264648 C-375.31048683 1065.63714775 -373.13695985 1067.62399287 -370.9609375 1069.61328125 C-366.69733733 1073.45634423 -362.32791477 1077.13150859 -357.86328125 1080.73828125 C-355.61383085 1082.55831697 -353.37869958 1084.39047007 -351.15234375 1086.23828125 C-341.3340201 1094.35611428 -331.20525383 1101.92812353 -320.7734375 1109.23828125 C-320.0009668 1109.77984863 -319.22849609 1110.32141602 -318.43261719 1110.87939453 C-244.62185425 1162.41834907 -160.04360865 1197.55630015 129.35552979 1209.86651611 C188.57522921 1199.29297315 244.53794033 1179.10915959 298.2265625 1152.23828125 C299.10199707 1151.80451172 299.97743164 1151.37074219 300.87939453 1150.92382812 C336.41381446 1133.24625313 370.01179758 1109.91649774 400.50292969 1084.65771484 C402.04785179 1083.3854518 403.60887402 1082.1327987 405.171875 1080.8828125 C411.05911799 1076.17130171 416.62333433 1071.18849038 422.10595703 1066.01757812 C424.97346421 1063.31419302 427.86983413 1060.67626519 430.8671875 1058.1171875 C436.19389277 1053.48360031 441.14688151 1048.46746671 446.12670898 1043.46850586 C447.7858357 1041.80401848 449.45024301 1040.14494678 451.11523438 1038.48632812 C456.69647706 1032.90857632 462.11243232 1027.25179604 467.2265625 1021.23828125 C468.68101767 1019.63059752 470.13877145 1018.0258841 471.6015625 1016.42578125 C476.33232343 1011.17647148 480.79653302 1005.7420418 485.2265625 1000.23828125 C486.15194658 999.10514428 487.07774643 997.97234676 488.00390625 996.83984375 C505.74269034 975.04816844 522.15234178 951.52038665 536.13525391 927.12939453 C537.35974126 925.00749765 538.61151453 922.90278842 539.86328125 920.796875 C554.85016573 895.35408386 567.4332689 868.7035011 578.2265625 841.23828125 C578.46934937 840.62164612 578.71213623 840.00501099 578.96228027 839.36968994 C603.24700065 777.4853828 616.62588751 711.09589188 618.7890625 644.67578125 C618.83224609 643.46470703 618.87542969 642.25363281 618.91992188 641.00585938 C621.75148283 557.09277533 606.01302131 472.15302748 554.2265625 353.23828125 C553.70320313 352.19575195 553.17984375 351.15322266 552.640625 350.07910156 C534.0891224 313.29392033 510.92218375 278.68203331 484.65039062 246.96630859 C483.36592373 245.40741685 482.09977313 243.83347686 480.8359375 242.2578125 C475.93826878 236.15334411 470.76136167 230.37979092 465.4140625 224.671875 C462.93107978 222.0205001 460.51671519 219.31435079 458.10546875 216.59765625 C453.15781471 211.08892269 447.9779028 205.83793368 442.7331543 200.61450195 C441.15882095 199.04555765 439.58994661 197.47129567 438.02148438 195.89648438 C432.5946836 190.46610635 427.07141675 185.22054052 421.2265625 180.23828125 C419.61887877 178.78382608 418.01416535 177.3260723 416.4140625 175.86328125 C411.16475273 171.13252032 405.73032305 166.66831073 400.2265625 162.23828125 C399.09342553 161.31289717 397.96062801 160.38709732 396.828125 159.4609375 C375.07851968 141.75639908 351.58306613 125.31088673 327.22119141 111.38134766 C324.89605875 110.04887873 322.5837299 108.69511643 320.26953125 107.34375 C286.13009693 87.56904557 250.56051128 71.927346 213.2265625 59.23828125 C212.23688477 58.89490723 211.24720703 58.5515332 210.22753906 58.19775391 C134.5393039 32.029356 51.89054827 23.59679428 -177.81439209 63.55529785 C-179.59875094 64.17738015 -181.38450688 64.79545143 -183.17041016 65.41308594 C-245.88497854 87.28863189 -304.98234402 122.70167002 -355.7734375 165.23828125 C-356.27794434 165.65787109 -356.78245117 166.07746094 -357.30224609 166.50976562 C-364.35968852 172.38203779 -371.23862192 178.40782675 -377.96875 184.65234375 C-380.39327726 186.88777139 -382.85491838 189.06631641 -385.3359375 191.23828125 C-390.5497036 195.91708438 -395.50039966 200.85587387 -400.4609375 205.80078125 C-401.26926025 206.60451172 -402.07758301 207.40824219 -402.91040039 208.23632812 C-407.17057388 212.50745097 -411.2734623 216.85358147 -415.20727539 221.42700195 C-417.45761847 224.02954215 -419.8033913 226.53320162 -422.1484375 229.05078125 C-426.66714029 233.93384478 -430.92397429 238.96999871 -435.09375 244.15625 C-436.7734375 246.23828125 -436.7734375 246.23828125 -437.7734375 247.23828125 C-440.4396978 247.32683286 -443.07990864 247.35352798 -445.74609375 247.3359375 C-446.54373642 247.33452255 -447.34137909 247.3331076 -448.16319275 247.33164978 C-450.72081185 247.32603441 -453.27834468 247.31347937 -455.8359375 247.30078125 C-457.56575395 247.29576823 -459.29557176 247.29120498 -461.02539062 247.28710938 C-465.27477303 247.27606 -469.52409062 247.25878511 -473.7734375 247.23828125 C-468.56947683 236.39307663 -459.17796064 227.06144088 -451.32324219 218.03076172 C-449.74480406 216.20516425 -448.18282033 214.36664896 -446.625 212.5234375 C-441.78229485 206.80175598 -436.9304827 201.2268322 -431.54296875 196.00390625 C-429.80982164 194.27458507 -428.22997825 192.48130457 -426.6484375 190.61328125 C-419.44484143 182.25048581 -411.44333476 174.3247931 -403.015625 167.19921875 C-400.42809582 164.93625769 -397.93517213 162.58554757 -395.43554688 160.22631836 C-388.76136136 153.92924743 -381.95090564 147.96098739 -374.7734375 142.23828125 C-373.58300797 141.25848438 -372.39431967 140.27656957 -371.20703125 139.29296875 C-356.02873456 126.75404224 -340.14225514 115.17211057 -323.7734375 104.23828125 C-323.00418945 103.72410645 -322.23494141 103.20993164 -321.44238281 102.68017578 C-310.20955366 95.20434846 -298.80059241 88.14459592 -287.04541016 81.52050781 C-284.87988478 80.29835659 -282.7226811 79.0625959 -280.56640625 77.82421875 C-212.08697484 38.79556445 -135.36153593 13.97035213 -32.7734375 1.23828125 C-31.80998413 1.15280533 -30.84653076 1.06732941 -29.85388184 0.97926331 C-19.89828138 0.17760877 -9.98307308 0.0396787 0 0 Z " fill="#FFD94E" transform="translate(860.7734375,113.76171875)"/>
</svg>
